<svg version="1.1" id="Layer_1" xmlns="http://www.w3.org/2000/svg" xmlns:xlink="http://www.w3.org/1999/xlink" x="0px" y="0px"
	 width="100%" viewBox="0 0 304 944" enable-background="new 0 0 304 944" xml:space="preserve">
<path fill="#1e1c13" opacity="1.1e1c13" stroke="none" 
	d="
M239.603043,547.329407 
	C235.341843,544.109131 231.405212,541.037659 227.373138,538.097107 
	C224.727219,536.167419 224.187927,534.333313 225.504532,530.961243 
	C229.017044,521.965027 231.954849,512.796753 238.655716,505.420868 
	C241.243683,502.572205 243.895050,499.841309 246.928406,497.507294 
	C252.559143,493.174713 260.065491,493.206207 266.516632,497.467468 
	C271.320190,500.640442 273.331207,506.058929 271.156738,512.974731 
	C266.853821,526.659790 259.263763,538.194092 247.158112,546.331360 
	C245.024460,547.765564 242.714264,549.618408 239.603043,547.329407 
z"/>
<path fill="#1e1c13" opacity="1.1e1c13" stroke="none" 
	d="
M76.906708,692.801636 
	C72.916748,677.994934 76.005768,664.344177 81.862488,651.211121 
	C85.067284,644.024658 90.126068,641.232971 95.801178,642.128845 
	C103.207222,643.297974 109.404129,649.285034 110.499435,656.385559 
	C112.311577,668.133179 110.098763,679.181702 104.788811,689.731750 
	C99.738991,699.764893 99.735252,700.074890 88.624161,697.898010 
	C84.629768,697.115417 79.086563,699.097351 76.906708,692.801636 
z"/>
<path fill="#1e1c13" opacity="1.1e1c13" stroke="none" 
	d="
M200.106415,128.687469 
	C200.076431,134.854843 197.404373,137.911713 191.542740,138.613693 
	C187.448883,139.103973 183.468140,140.494232 179.411392,141.363480 
	C178.003342,141.665176 176.445160,142.067612 175.439636,140.321808 
	C169.219467,129.522308 162.697266,118.935242 161.711029,105.943970 
	C161.071335,97.517738 163.097168,90.822784 170.805679,86.567230 
	C177.595535,82.818825 184.418259,84.173439 188.762772,90.641434 
	C196.370712,101.967918 200.044937,114.587776 200.106415,128.687469 
z"/>
<path fill="#1e1c13" opacity="1.1e1c13" stroke="none" 
	d="
M164.487732,619.685669 
	C166.670700,610.142029 171.323685,602.322815 177.322876,595.303528 
	C182.143478,589.663147 190.593323,588.311035 197.375275,591.700562 
	C202.724442,594.374023 205.519714,600.647583 203.982880,608.019409 
	C201.370773,620.549316 196.728333,632.182312 187.703842,641.667358 
	C184.324554,645.219116 180.970291,647.230042 176.055176,643.942139 
	C172.489990,641.557190 168.420258,639.915283 164.536514,638.021973 
	C162.268829,636.916443 161.375839,635.284363 161.897125,632.780273 
	C162.775711,628.559631 163.559937,624.319397 164.487732,619.685669 
z"/>
<path fill="#1e1c13" opacity="1.1e1c13" stroke="none" 
	d="
M133.858093,537.994446 
	C134.727509,536.338318 135.395874,534.997620 136.147873,533.705566 
	C140.161392,526.809753 146.208405,523.703613 152.075226,525.496338 
	C160.098877,527.948120 165.315186,535.320435 164.959183,543.006531 
	C164.313629,556.943848 158.960510,569.056274 151.250015,580.378174 
	C149.941849,582.299072 148.331680,582.442017 146.499863,582.006348 
	C141.329712,580.776733 136.194412,579.401489 131.033600,578.131470 
	C127.242859,577.198608 127.037231,574.103149 126.760544,571.102783 
	C125.687759,559.469910 128.962753,548.743774 133.858093,537.994446 
z"/>
<path fill="#1e1c13" opacity="1.1e1c13" stroke="none" 
	d="
M178.884613,299.868103 
	C184.843979,301.019562 188.033493,304.572357 190.505875,309.529816 
	C196.683746,321.917206 197.457413,334.990082 196.434326,348.420624 
	C196.270477,350.571777 194.969803,351.263550 193.311096,351.711121 
	C188.018860,353.139191 182.709290,354.502869 177.408371,355.898956 
	C174.098358,356.770752 172.455994,354.365631 170.919281,352.296265 
	C166.278992,346.047516 163.635590,338.854126 162.112778,331.314270 
	C160.963455,325.623596 160.409454,319.818268 160.714554,313.969757 
	C161.305099,302.649628 167.326202,297.821564 178.884613,299.868103 
z"/>
<path fill="#1e1c13" opacity="1.1e1c13" stroke="none" 
	d="
M38.025726,781.274902 
	C39.305698,777.600159 40.255894,774.224670 41.658833,771.049133 
	C45.019497,763.442322 50.711937,759.813049 56.999901,760.969482 
	C65.288612,762.493896 70.773445,768.856201 71.275970,777.232422 
	C71.967903,788.765930 69.910316,799.655334 64.616142,810.002625 
	C60.527538,817.993591 60.711319,818.097412 51.765343,817.093018 
	C50.281826,816.926392 48.814812,816.617981 47.335060,816.411865 
	C37.768410,815.079651 36.326191,813.554749 35.710201,803.875793 
	C35.231743,796.357849 35.963791,788.949524 38.025726,781.274902 
z"/>
<path fill="#1e1c13" opacity="1.1e1c13" stroke="none" 
	d="
M232.341583,219.669449 
	C240.600082,231.356506 244.156036,244.167236 244.078186,257.972382 
	C244.036606,265.342957 242.935501,266.363770 235.874603,268.240814 
	C235.071106,268.454407 234.268631,268.675476 233.457413,268.855835 
	C217.222229,272.465790 222.785782,273.874969 214.086685,260.541016 
	C208.707123,252.295212 206.671539,242.838242 205.827179,233.085327 
	C205.232697,226.218582 208.092575,221.152008 213.415375,217.242584 
	C219.923798,212.462357 225.717072,213.164963 232.341583,219.669449 
z"/>
<path fill="#1e1c13" opacity="1.1e1c13" stroke="none" 
	d="
M180.172424,444.455322 
	C181.033997,439.602478 181.639450,435.145508 183.473862,430.972107 
	C186.727798,423.569214 191.078766,420.384033 197.312881,420.940216 
	C204.321106,421.565491 211.277298,426.821747 212.397980,433.518829 
	C214.277985,444.753296 214.428741,455.986725 210.115219,466.924408 
	C205.962799,477.453613 206.104736,477.509583 194.708252,477.227081 
	C182.903580,476.934479 181.028076,475.014313 179.606140,463.267609 
	C178.855560,457.066986 179.189102,450.990540 180.172424,444.455322 
z"/>
<path fill="#1e1c13" opacity="1.1e1c13" stroke="none" 
	d="
M112.840172,195.854050 
	C111.371429,191.860214 110.539078,188.190781 110.606163,184.269867 
	C110.732773,176.869492 112.490150,173.554291 117.841293,171.440323 
	C125.273994,168.504074 132.877716,169.731873 137.252945,174.679367 
	C145.281174,183.757721 150.408707,194.210266 152.324753,206.245270 
	C153.780899,215.391525 153.890060,215.374237 145.663620,220.112595 
	C145.374939,220.278870 145.082367,220.438324 144.792923,220.603271 
	C133.607269,226.977936 131.433838,226.476929 123.457649,216.033463 
	C118.853424,210.005035 115.766411,203.201981 112.840172,195.854050 
z"/>
<path fill="#1e1c13" opacity="1.1e1c13" stroke="none" 
	d="
M113.041000,85.316666 
	C109.944267,84.991486 107.317909,84.573433 104.675117,84.381355 
	C96.545105,83.790512 95.681511,83.378319 94.329239,75.248840 
	C92.202766,62.465157 94.169533,50.064030 99.346474,38.251404 
	C102.445450,31.180254 107.696289,28.078337 113.690880,29.073273 
	C121.430809,30.357889 127.084290,35.751209 128.282486,42.835526 
	C130.261322,54.535465 128.197571,65.627777 123.421722,76.336380 
	C122.880188,77.550644 122.062096,78.708672 121.821198,79.977982 
	C120.911346,84.772102 117.917587,86.098633 113.041000,85.316666 
z"/>
<path fill="#1e1c13" opacity="1.1e1c13" stroke="none" 
	d="
M153.378021,737.060913 
	C151.501190,746.009766 148.875229,754.179932 143.835983,761.460571 
	C141.136612,765.360535 138.211502,767.199707 133.371216,765.122131 
	C129.407394,763.420654 125.163231,762.378906 121.065361,760.980103 
	C119.334015,760.389160 117.651016,759.816772 117.564110,757.383057 
	C117.076416,743.724548 118.324379,730.483521 125.220146,718.214783 
	C128.965469,711.551147 134.776657,709.114258 141.823593,709.217163 
	C148.656738,709.316833 153.804245,714.383484 154.267288,721.222107 
	C154.615143,726.359436 154.750946,731.552917 153.378021,737.060913 
z"/>
<path fill="#1e1c13" opacity="1.1e1c13" stroke="none" 
	d="
M276.635803,368.293762 
	C281.561584,373.479492 282.506165,379.819305 283.049713,386.089355 
	C283.974487,396.757019 283.593689,407.340179 278.934357,417.345276 
	C277.327545,420.795715 275.222504,422.383331 271.137146,421.731354 
	C266.730225,421.028046 262.190643,421.181549 257.715332,420.869354 
	C255.707718,420.729279 253.681534,420.471191 253.073074,417.954193 
	C249.805084,404.435669 247.582626,390.889709 251.931183,377.162384 
	C255.275223,366.606140 267.234589,362.145905 276.635803,368.293762 
z"/>
<path fill="#1e1c13" opacity="1.1e1c13" stroke="none" 
	d="
M95.485237,831.075378 
	C106.086578,827.995300 112.829369,831.439514 114.900627,841.652405 
	C117.624756,855.084534 117.127983,868.423889 111.443535,881.253845 
	C109.822174,884.913391 107.571709,886.474243 103.381523,886.250854 
	C85.847092,885.315979 85.228668,884.665466 82.663773,867.638977 
	C81.174545,857.752930 83.310684,848.468384 86.118507,839.237854 
	C87.421738,834.953613 91.020515,832.677490 95.485237,831.075378 
z"/>
<path fill="#1e1c13" opacity="1.1e1c13" stroke="none" 
	d="
M142.659576,238.251678 
	C137.724609,231.397949 137.717560,231.386230 144.582291,227.260941 
	C146.860809,225.891693 149.149170,224.530807 151.496231,223.285141 
	C158.959671,219.324020 161.467422,220.049530 166.355133,227.464005 
	C170.446564,233.670547 169.608704,239.959137 164.113800,244.286804 
	C158.533081,248.682053 153.109528,248.141556 146.702179,242.464737 
	C145.339417,241.257370 144.155655,239.847977 142.659576,238.251678 
z"/>
<path fill="#1e1c13" opacity="1.1e1c13" stroke="none" 
	d="
M191.414551,505.832275 
	C185.293747,500.541840 184.567169,493.588623 184.259094,486.567444 
	C184.147659,484.027893 185.690659,482.697479 188.397034,482.750793 
	C193.544403,482.852234 198.694366,482.815155 203.843079,482.857971 
	C205.188660,482.869171 206.414719,483.086243 207.395325,484.253967 
	C210.723038,488.216522 211.236801,498.506714 208.241302,502.746460 
	C204.697159,507.762756 198.788162,508.940002 191.414551,505.832275 
z"/>
<path fill="#1e1c13" opacity="1.1e1c13" stroke="none" 
	d="
M200.113388,160.665314 
	C197.387177,168.091705 192.023895,171.427887 185.502502,170.093872 
	C179.406540,168.846878 175.827377,163.592087 176.001175,156.144424 
	C176.180405,148.464035 176.584518,147.933456 184.060913,146.155731 
	C187.618179,145.309875 191.244507,144.725266 194.758545,143.734924 
	C198.213516,142.761200 199.741013,144.231766 200.379929,147.381332 
	C201.254532,151.692673 201.015305,155.981461 200.113388,160.665314 
z"/>
<path fill="#1e1c13" opacity="1.1e1c13" stroke="none" 
	d="
M134.905334,771.958923 
	C136.613846,782.207825 124.835075,793.898254 115.942863,791.313538 
	C108.837959,789.248230 105.246681,782.048828 107.917374,775.180908 
	C108.277779,774.254089 108.736984,773.361938 109.197365,772.478210 
	C113.236755,764.723999 113.777061,764.491394 121.920380,767.268494 
	C126.162712,768.715271 130.381165,770.232117 134.905334,771.958923 
z"/>
<path fill="#1e1c13" opacity="1.1e1c13" stroke="none" 
	d="
M127.048264,585.196960 
	C128.552444,583.606445 130.020416,583.940552 131.500641,584.278748 
	C134.735870,585.017944 137.989578,585.681519 141.209473,586.481628 
	C149.768143,588.608459 151.067352,590.479126 150.139908,599.117615 
	C149.375320,606.239258 145.223312,610.659180 138.966965,611.011536 
	C132.404160,611.381042 127.009521,606.947327 125.995903,599.816833 
	C125.321198,595.070557 124.970390,590.211731 127.048264,585.196960 
z"/>
<path fill="#1e1c13" opacity="1.1e1c13" stroke="none" 
	d="
M240.139587,273.235992 
	C242.879822,272.982697 243.741272,274.529663 244.231766,276.422516 
	C245.784576,282.414948 245.596008,288.348999 242.798141,293.912506 
	C240.454254,298.573242 236.136948,300.313171 231.159409,300.041534 
	C225.918182,299.755524 222.109131,296.379303 220.833771,291.371918 
	C220.507126,290.089386 220.325089,288.758698 220.198486,287.438416 
	C219.421310,279.332703 220.649506,277.628632 228.572372,275.804443 
	C232.291214,274.948212 236.021545,274.141998 240.139587,273.235992 
z"/>
<path fill="#1e1c13" opacity="1.1e1c13" stroke="none" 
	d="
M260.860565,451.250854 
	C254.696655,451.249207 250.436142,448.792206 248.505417,443.299622 
	C246.428589,437.391357 249.352890,432.330536 251.935699,427.322083 
	C252.425415,426.372498 253.562515,426.228821 254.587234,426.294952 
	C259.878082,426.636597 265.172729,426.940277 270.454346,427.393585 
	C272.488068,427.568146 274.316040,428.207214 274.830017,430.688782 
	C276.400177,438.269714 268.940399,449.649292 260.860565,451.250854 
z"/>
<path fill="#1e1c13" opacity="1.1e1c13" stroke="none" 
	d="
M211.849762,564.310913 
	C200.891434,554.458191 209.027557,544.671326 217.946228,540.142029 
	C219.085617,539.563416 220.254059,539.873291 221.231644,540.638184 
	C225.949799,544.329773 230.663055,548.027954 235.344971,551.765259 
	C236.560532,552.735535 236.507675,554.039551 236.007217,555.405212 
	C233.079620,563.394104 219.603333,568.559509 211.849762,564.310913 
z"/>
<path fill="#1e1c13" opacity="1.1e1c13" stroke="none" 
	d="
M80.314873,897.567261 
	C81.907845,891.767883 84.758629,889.002319 90.905151,890.690918 
	C94.369766,891.642761 98.109032,891.690613 101.738838,891.919800 
	C105.743256,892.172668 106.904007,894.353210 106.145088,897.917664 
	C105.454468,901.161438 104.481728,904.330383 102.904984,907.277405 
	C99.011124,914.555481 93.113533,917.109802 86.572777,914.355591 
	C79.817169,911.510803 77.686440,906.050781 80.314873,897.567261 
z"/>
<path fill="#1e1c13" opacity="1.1e1c13" stroke="none" 
	d="
M102.923241,716.007507 
	C101.849327,724.470337 97.971123,728.535461 91.196945,728.747742 
	C84.793617,728.948364 80.385368,725.068726 78.542900,717.611572 
	C78.383095,716.964783 78.189209,716.324585 78.064911,715.671143 
	C75.951729,704.561707 77.392067,702.914490 88.469818,703.753906 
	C88.968117,703.791626 89.466240,703.832031 89.964775,703.866272 
	C101.254501,704.640076 101.254509,704.640015 102.923241,716.007507 
z"/>
<path fill="#1e1c13" opacity="1.1e1c13" stroke="none" 
	d="
M39.045906,822.969482 
	C46.263302,820.969971 53.033390,823.098999 59.882656,823.811890 
	C60.314686,823.856812 60.890675,824.227234 61.083187,824.606812 
	C63.686237,829.738708 64.242287,835.154846 62.330070,840.543335 
	C60.755867,844.979309 55.644299,847.613403 50.542126,847.243896 
	C45.118084,846.851074 41.114101,843.874634 39.641533,838.487854 
	C38.292408,833.552551 36.648029,828.520752 39.045906,822.969482 
z"/>
<path fill="#1e1c13" opacity="1.1e1c13" stroke="none" 
	d="
M198.559052,356.434174 
	C201.944366,358.583588 203.484802,361.761719 204.936676,364.904266 
	C207.679123,370.840271 206.441696,376.309845 201.861771,379.614868 
	C196.384491,383.567444 189.862823,383.186401 185.134537,378.499573 
	C181.756393,375.151123 179.930725,370.857910 178.308258,366.484924 
	C177.308823,363.791199 178.136841,361.962250 180.976089,361.166656 
	C186.719177,359.557404 192.461884,357.946777 198.559052,356.434174 
z"/>
<path fill="#1e1c13" opacity="1.1e1c13" stroke="none" 
	d="
M162.389099,667.884521 
	C154.645325,668.181946 149.051743,664.598206 147.806656,658.902771 
	C146.584259,653.311035 151.431091,644.184021 156.778305,641.884460 
	C158.182266,641.280762 159.341660,641.692139 160.544250,642.331299 
	C165.079453,644.741516 169.579559,647.222717 174.172760,649.517395 
	C177.387543,651.123413 177.441132,653.266724 175.768066,655.990051 
	C172.578430,661.182007 168.635162,665.528076 162.389099,667.884521 
z"/>
<path fill="#1e1c13" opacity="1.1e1c13" stroke="none" 
	d="
M110.862549,90.870346 
	C120.530365,91.682648 121.908737,93.139557 122.252464,102.446190 
	C122.500664,109.166321 118.810776,114.189613 112.872704,115.215492 
	C105.858963,116.427208 100.728630,113.223198 98.411026,106.162689 
	C98.101051,105.218361 97.850807,104.251709 97.622627,103.283676 
	C94.897545,91.722443 95.928696,90.413956 107.416534,90.809921 
	C108.413017,90.844276 109.410851,90.839554 110.862549,90.870346 
z"/>
</svg>